<svg preserveAspectRatio="none" overflow="visible" style="display: block;" width="19.2148" height="19.2148" viewBox="0 0 19.2148 19.2148" fill="none" xmlns="http://www.w3.org/2000/svg">
<g id="user icon">
<path id="Vector" d="M16.8131 17.6137C16.3568 8.12476 2.85833 8.12476 2.40198 17.6137M14.111 6.04956C14.1104 6.63502 13.9934 7.21451 13.7669 7.75437C13.5404 8.29424 13.2089 8.78372 12.7916 9.19439C11.9426 10.03 10.7987 10.4976 9.60755 10.4962C8.41623 10.4974 7.27235 10.0294 6.42349 9.19359C6.00622 8.78292 5.67471 8.29344 5.44821 7.75357C5.2217 7.21371 5.10473 6.63422 5.10407 6.04876C5.10407 4.86865 5.57883 3.73737 6.42349 2.90313C7.27248 2.06756 8.41634 1.59989 9.60755 1.60132C10.8021 1.60132 11.9478 2.06969 12.7916 2.90393C13.209 3.31469 13.5405 3.8043 13.767 4.34432C13.9935 4.88433 14.1105 5.46397 14.111 6.04956Z" stroke="white" stroke-width="1.60124" stroke-linecap="round" stroke-linejoin="round"/>
</g>
</svg>
